HIERARCHY
ROOT Hips
{
	OFFSET 0.000000 0.000000 0.000000 
	CHANNELS 6 Xposition Yposition Zposition Zrotation Yrotation Xrotation
	JOINT LeftUpLeg
	{
		OFFSET 1.363060 -1.794630 0.839290 
		CHANNELS 3 Zrotation Yrotation Xrotation
		JOINT LeftLeg
		{
			OFFSET 2.448110 -6.726130 0.000000 
			CHANNELS 3 Zrotation Yrotation Xrotation
			JOINT LeftFoot
			{
				OFFSET 2.562200 -7.039590 0.000000 
				CHANNELS 3 Zrotation Yrotation Xrotation
				JOINT LeftToeBase
				{
					OFFSET 0.157640 -0.433110 2.322550 
					CHANNELS 3 Zrotation Yrotation Xrotation
					End Site
					{
						OFFSET 0.000000 0.000000 0.000000 
					}
				}
			}
		}
	}
	JOINT RightUpLeg
	{
		OFFSET -1.305520 -1.794630 0.839290 
		CHANNELS 3 Zrotation Yrotation Xrotation
		JOINT RightLeg
		{
			OFFSET -2.542530 -6.985550 0.000000 
			CHANNELS 3 Zrotation Yrotation Xrotation
			JOINT RightFoot
			{
				OFFSET -2.568260 -7.056230 0.000000 
				CHANNELS 3 Zrotation Yrotation Xrotation
				JOINT RightToeBase
				{
					OFFSET -0.164730 -0.452590 2.363150 
					CHANNELS 3 Zrotation Yrotation Xrotation
					End Site
					{
						OFFSET 0.000000 0.000000 0.000000 
					}
				}
			}
		}
	}
	JOINT Spine
	{
		OFFSET 0.028270 2.035590 -0.193380 
		CHANNELS 3 Zrotation Yrotation Xrotation
		JOINT Spine1
		{
			OFFSET 0.056720 2.048850 -0.042750 
			CHANNELS 3 Zrotation Yrotation Xrotation
			JOINT Neck1
			{
				OFFSET -0.054170 1.746240 0.172020 
				CHANNELS 3 Zrotation Yrotation Xrotation
				JOINT Head
				{
					OFFSET 0.104070 1.761360 -0.123970 
					CHANNELS 3 Zrotation Yrotation Xrotation
					End Site
					{
						OFFSET 0.000000 0.000000 0.000000 
					}
				}
			}
			JOINT LeftArm
			{
				OFFSET 3.362410 1.200890 -0.311210 
				CHANNELS 3 Zrotation Yrotation Xrotation
				JOINT LeftForeArm
				{
					OFFSET 4.983000 -0.000000 -0.000000 
					CHANNELS 3 Zrotation Yrotation Xrotation
					JOINT LeftHand
					{
						OFFSET 3.483560 -0.000000 -0.000000 
						CHANNELS 3 Zrotation Yrotation Xrotation
						JOINT LeftHandIndex1
						{
							OFFSET 0.715260 -0.000000 -0.000000 
							CHANNELS 3 Zrotation Yrotation Xrotation
							End Site
							{
								OFFSET 0.000000 0.000000 0.000000 
							}
						}
					}
				}
			}
			JOINT RightArm
			{
				OFFSET -3.136600 1.374050 -0.404650 
				CHANNELS 3 Zrotation Yrotation Xrotation
				JOINT RightForeArm
				{
					OFFSET -5.241900 -0.000000 -0.000000 
					CHANNELS 3 Zrotation Yrotation Xrotation
					JOINT RightHand
					{
						OFFSET -3.444170 -0.000000 -0.000000 
						CHANNELS 3 Zrotation Yrotation Xrotation
						JOINT RightHandIndex1
						{
							OFFSET -0.622530 -0.000000 -0.000000 
							CHANNELS 3 Zrotation Yrotation Xrotation
							End Site
							{
								OFFSET 0.000000 0.000000 0.000000 
							}
						}
					}
				}
			}
		}
	}
}
MOTION
Frames: 9
Frame Time: 0.041667
39.131891 16.437807 13.963843 -151.196783 52.194135 -160.980807 -5.214683 8.006488 -27.980831 -0.340057 6.614434 18.592474 -2.292146 14.517277 -11.088725 0.215900 2.991600 8.255300 33.708059 -20.640868 28.201262 0.323666 -5.080562 7.556816 -1.060120 1.745960 -22.587041 -0.729600 5.457300 -15.217700 0.710667 7.492137 -1.435498 -8.019267 3.872026 2.936993 0.518610 10.871392 13.438912 -3.413600 5.709900 14.547100 -79.738745 17.509995 12.634466 13.005519 -23.063616 -3.034340 -0.547921 0.609419 4.710226 -7.125000 0.000000 0.000000 60.329586 15.410314 13.630756 -28.951684 41.675684 -10.241770 0.546041 -1.904473 -7.759488 7.125000 0.000000 0.000000 
39.285573 16.413762 13.850576 -151.723425 52.591924 -161.400181 -5.926901 9.177418 -28.504880 -0.125006 7.132503 20.124196 -2.556534 15.772127 -11.084588 0.089900 1.934300 5.324200 33.176164 -20.308162 28.873796 0.327543 -5.333803 8.310428 -1.051435 0.934804 -22.923642 -1.551100 7.860800 -22.292200 0.633751 7.650926 -1.414692 -7.928778 3.944018 2.903901 0.323020 10.966733 13.109128 -3.635300 5.770800 14.287100 -79.910746 17.498603 11.569718 12.612675 -22.539252 -2.881189 -0.574390 0.592812 4.927672 -7.125000 0.000000 0.000000 60.961789 15.135683 14.161426 -29.697589 42.339603 -10.664831 0.564227 -1.899872 -8.267176 7.125000 0.000000 0.000000 
39.440279 16.388898 13.731886 -153.304051 53.119653 -162.641404 -7.345260 10.349196 -28.885783 -0.014941 7.523112 21.185736 -2.749420 16.832470 -11.487904 0.191700 2.819600 7.777000 31.982713 -19.781829 29.809179 0.312677 -5.495829 8.866187 -1.042580 0.149929 -23.240382 -2.034200 8.937000 -25.598600 0.501032 7.746046 -1.389557 -7.667107 3.977231 2.937961 0.326260 11.003051 12.974841 -3.652600 5.781300 14.203900 -80.453533 17.550857 9.397700 12.466388 -22.352539 -2.832540 -0.571724 0.591484 6.237488 -7.125000 0.000000 0.000000 61.704579 14.881011 14.675221 -30.399768 42.943559 -11.060134 0.587160 -1.894913 -8.516382 7.125000 0.000000 0.000000 
39.597339 16.369151 13.601635 -155.246829 53.352729 -164.221275 -8.983155 11.486052 -29.252151 0.069040 7.845967 22.021813 -2.842591 17.407090 -11.441408 0.204200 2.909800 8.027800 30.618078 -19.475805 30.789165 0.294468 -5.597794 9.245965 -1.011508 -0.437298 -23.225348 -2.205400 9.281500 -26.679900 0.349180 7.713149 -1.363279 -7.506311 3.954405 3.053212 0.350475 11.052152 12.951177 -3.654700 5.805700 14.219200 -80.434017 17.115412 8.010516 11.714606 -21.282538 -2.542799 -0.576628 0.608518 6.915665 -7.125000 0.000000 0.000000 62.673535 14.496103 15.107194 -31.178126 43.610984 -11.519720 0.609394 -1.895875 -8.530558 7.125000 0.000000 0.000000 
39.750714 16.359738 13.465244 -156.831458 53.401167 -165.564209 -10.175352 12.239215 -29.402337 0.148596 8.102069 22.694174 -2.852289 17.556328 -11.233041 0.144900 2.453000 6.759300 29.437654 -19.333789 31.517536 0.268624 -5.811600 9.902511 -0.954765 -0.973964 -22.920561 -2.485600 9.811700 -28.369200 0.214429 7.626969 -1.354184 -7.463876 3.909004 3.093521 0.406118 11.111296 12.908368 -3.648700 5.849900 14.182100 -80.442412 17.272887 7.344102 11.534212 -21.040273 -2.479474 -0.577758 0.598301 7.052670 -7.125000 0.000000 0.000000 63.714309 13.998928 15.751575 -31.997143 44.303055 -12.014597 0.621985 -1.900246 -8.699105 7.125000 0.000000 0.000000 
39.897439 16.356156 13.327114 -158.683128 53.600476 -167.180691 -11.312222 12.561261 -29.170939 0.182598 8.304089 23.162783 -2.695096 16.992259 -11.197826 0.192400 2.825000 7.791900 27.981691 -19.036898 32.227703 0.218029 -6.105996 10.814182 -0.907342 -1.398304 -22.607595 -2.717700 10.223400 -29.703200 0.052744 7.581095 -1.342951 -7.433612 3.886777 3.090551 0.634276 11.156505 12.924492 -3.495100 5.883800 14.190200 -80.704132 16.546542 4.347451 10.777078 -19.892431 -2.203619 -0.553013 0.622112 9.702643 -7.125000 0.000000 0.000000 64.728564 13.492967 16.491850 -32.808369 44.963368 -12.502671 0.635698 -1.903610 -8.967334 7.125000 0.000000 0.000000 
40.040583 16.359124 13.187653 -160.809622 53.715569 -168.934227 -12.615963 12.791107 -29.031431 0.222920 8.522658 23.653042 -2.348025 15.488486 -10.865113 0.376800 3.942400 10.914600 26.570796 -18.537187 32.770657 0.147222 -6.452528 11.896407 -0.865205 -1.846360 -22.351785 -2.871500 10.484100 -30.559100 -0.123057 7.534091 -1.331035 -7.416184 3.869250 3.099237 0.730147 11.325015 12.922643 -3.426700 5.968700 14.210300 -80.647560 16.166221 3.613503 10.228722 -19.064954 -2.011873 -0.548717 0.616687 10.434959 -7.125000 0.000000 0.000000 65.718970 12.877072 17.227933 -33.620729 45.604835 -12.988074 0.654413 -1.903695 -9.193187 7.125000 0.000000 0.000000 
40.184034 16.371300 13.047477 -162.429133 53.630545 -170.211638 -13.930181 13.426468 -29.327668 0.350461 8.827858 24.431856 -2.181072 14.637953 -9.394414 0.232700 3.104900 8.571000 25.925465 -17.833756 33.085158 0.071659 -6.839615 13.083864 -0.795398 -2.486801 -21.933983 -2.773900 10.319700 -30.018400 -0.239188 7.434717 -1.334949 -7.313547 3.821664 3.123533 0.743309 11.443529 12.934804 -3.409800 6.023800 14.220700 -80.866711 15.483722 1.257509 9.462584 -17.879012 -1.757009 -0.516861 0.644801 12.773233 -7.125000 0.000000 0.000000 66.631417 12.117665 18.126181 -34.446510 46.234324 -13.473343 0.681925 -1.900087 -9.273994 7.125000 0.000000 0.000000 
40.329736 16.391252 12.902900 -163.523419 53.383615 -171.146498 -14.738577 13.624558 -29.214238 0.452506 9.093885 25.121588 -2.045916 14.022142 -8.853817 0.367900 3.896200 10.784800 25.637079 -17.253860 33.157877 -0.032581 -7.357262 14.606730 -0.720360 -2.981404 -21.338496 -2.401700 9.656900 -27.872800 -0.327774 7.332153 -1.357671 -7.372779 3.779173 3.114699 0.787751 11.613231 13.042435 -3.388300 6.119200 14.358600 -81.767461 12.232572 -14.842014 7.036129 -13.752184 -1.032597 -0.288918 0.861097 28.514153 -7.125000 0.000000 0.000000 67.617134 11.215909 19.013564 -35.245943 46.826838 -13.946427 0.715899 -1.900806 -9.309015 7.125000 0.000000 0.000000 
